<?xml version="1.0" standalone="no"?>
<!DOCTYPE svg PUBLIC "-//W3C//DTD SVG 20010904//EN"
 "http://www.w3.org/TR/2001/REC-SVG-20010904/DTD/svg10.dtd">
<svg version="1.0" xmlns="http://www.w3.org/2000/svg"
 width="500.000000pt" height="500.000000pt" viewBox="0 0 500.000000 500.000000"
 preserveAspectRatio="xMidYMid meet">
<metadata>
Created by potrace 1.11, written by Peter Selinger 2001-2013
</metadata>
<g transform="translate(0.000000,500.000000) scale(0.100000,-0.100000)"
fill="#000000" stroke="none">
<path d="M2457 3913 c-1 -1 -38 -4 -82 -7 -44 -3 -91 -8 -105 -11 -14 -4 -38
-8 -55 -10 -16 -2 -66 -15 -110 -29 -255 -78 -438 -189 -628 -381 -87 -88
-237 -303 -237 -340 0 -8 -4 -15 -8 -15 -9 0 -37 -70 -34 -82 1 -5 -2 -8 -7
-8 -4 0 -16 -28 -26 -62 -9 -35 -20 -67 -23 -73 -4 -5 -7 -14 -8 -20 -1 -5 -9
-46 -18 -90 -40 -200 -40 -361 -2 -570 10 -51 47 -176 69 -230 29 -73 69 -158
76 -165 4 -3 13 -18 21 -35 8 -16 17 -32 21 -35 3 -3 15 -21 27 -40 11 -20 30
-47 42 -59 11 -13 20 -27 20 -31 0 -3 39 -47 88 -96 245 -251 527 -391 867
-431 145 -17 420 2 505 35 8 3 17 6 20 6 41 9 107 31 115 37 5 5 15 9 23 9 30
0 297 145 332 180 3 3 27 23 55 45 110 89 239 235 309 352 39 64 117 223 109
223 -3 0 -1 6 5 13 16 20 55 151 68 232 3 17 7 36 10 44 7 22 16 136 18 226 1
102 -13 235 -36 320 -6 22 -12 47 -13 55 -2 8 -4 15 -5 15 -1 0 -3 7 -5 15 -6
34 -39 120 -71 188 -19 41 -34 78 -34 83 0 5 -4 9 -10 9 -5 0 -10 5 -10 11 0
6 -18 38 -40 71 -22 33 -40 63 -40 67 0 4 -9 13 -20 21 -11 8 -20 18 -20 23 0
10 -76 92 -140 153 -84 78 -105 96 -132 112 -16 9 -28 20 -28 24 0 4 -4 8 -10
8 -5 0 -26 12 -47 26 -71 49 -268 140 -293 136 -3 0 -9 3 -15 8 -10 8 -118 38
-165 46 -14 2 -34 6 -46 9 -44 10 -271 25 -277 18z"/>
</g>
</svg>
